<svg xmlns="http://www.w3.org/2000/svg" xmlns:xlink="http://www.w3.org/1999/xlink" width="31.024" height="31.023" viewBox="0 0 31.024 31.023">
  <defs>
    <clipPath id="clip-path">
      <rect id="Retângulo_1083" data-name="Retângulo 1083" width="31.024" height="31.024" fill="#fff"/>
    </clipPath>
  </defs>
  <g id="Grupo_8351" data-name="Grupo 8351" transform="translate(182 7)" opacity="0.619">
    <g id="Grupo_8350" data-name="Grupo 8350" transform="translate(-182 -7)" clip-path="url(#clip-path)">
      <g id="Grupo_8349" data-name="Grupo 8349" transform="translate(0 0)">
        <path id="Caminho_1101" data-name="Caminho 1101" d="M-126.871,34.4a2.062,2.062,0,0,0-.531-.265c-.188-.064-.366-.127-.531-.188a6.475,6.475,0,0,0-.891-.247.857.857,0,0,0-.491.019.352.352,0,0,0-.139.106.351.351,0,0,0-.071.159,3.01,3.01,0,0,0-.037.531v6.892a1.091,1.091,0,0,0,.154.48,1.326,1.326,0,0,0,.4.417,2.062,2.062,0,0,0,.531.265c.188.064.366.127.531.188a6.476,6.476,0,0,0,.889.247.864.864,0,0,0,.493-.019.358.358,0,0,0,.138-.106.356.356,0,0,0,.072-.159,3.036,3.036,0,0,0,.037-.531V35.31a1.094,1.094,0,0,0-.154-.48,1.329,1.329,0,0,0-.4-.424Z" transform="translate(143.473 -22.886)" fill="#fff"/>
        <path id="Caminho_1102" data-name="Caminho 1102" d="M-166.488-7a15.511,15.511,0,0,0-8.618,2.614,15.511,15.511,0,0,0-5.713,6.961,15.509,15.509,0,0,0-.883,8.962,15.511,15.511,0,0,0,4.245,7.942,15.514,15.514,0,0,0,7.942,4.246,15.51,15.51,0,0,0,8.962-.883,15.509,15.509,0,0,0,6.962-5.713,15.511,15.511,0,0,0,2.614-8.618,15.51,15.51,0,0,0-1.181-5.936,15.515,15.515,0,0,0-3.362-5.032,15.514,15.514,0,0,0-5.033-3.362A15.508,15.508,0,0,0-166.488-7Zm8.107,18.671a.4.4,0,0,1-.017.179.4.4,0,0,1-.094.153.4.4,0,0,1-.153.1.4.4,0,0,1-.179.018h-.753c-.462,0-.414-.385-.414-.385V5.57a1.185,1.185,0,0,0-.159-.637,1.422,1.422,0,0,0-.4-.417,1.957,1.957,0,0,0-.531-.265q-.294-.1-.531-.191a6.556,6.556,0,0,0-.9-.228.857.857,0,0,0-.485.019.367.367,0,0,0-.132.109.367.367,0,0,0-.067.157,3.035,3.035,0,0,0-.037.531V13.2a2.284,2.284,0,0,1-.04.446,1.418,1.418,0,0,1-.122.371,1.379,1.379,0,0,1-.265.342,1.873,1.873,0,0,1-.889.464h-.019a1.714,1.714,0,0,1-.966-.029l-1.045-.353c-.379-.133-.732-.249-1.061-.353l-.265-.1c-.119-.045-.218-.08-.292-.1a1.184,1.184,0,0,1-.324.493,1.919,1.919,0,0,1-.871.464,1.92,1.92,0,0,1-.986-.029l-1.051-.369q-.568-.2-1.043-.35l-.379-.133c-.151-.05-.239-.082-.265-.1a4.766,4.766,0,0,1-.472-.188,1.561,1.561,0,0,1-.446-.313,1.749,1.749,0,0,1-.342-.531,2.3,2.3,0,0,1-.159-.836h-.019V5.265a.4.4,0,0,1,.017-.179.4.4,0,0,1,.094-.153.4.4,0,0,1,.153-.1.4.4,0,0,1,.179-.018h.753c.462,0,.414.382.414.382v6.165a1.2,1.2,0,0,0,.159.637,1.455,1.455,0,0,0,.4.417,1.961,1.961,0,0,0,.531.265q.294.1.531.191a6.488,6.488,0,0,0,.889.247.857.857,0,0,0,.485-.019.355.355,0,0,0,.131-.109.355.355,0,0,0,.066-.157,2.779,2.779,0,0,0,.04-.531V3.744a2.534,2.534,0,0,1,.037-.446,1.424,1.424,0,0,1,.125-.371,1.352,1.352,0,0,1,.265-.34,1.925,1.925,0,0,1,.891-.467,2.061,2.061,0,0,1,.515-.053,1.47,1.47,0,0,1,.475.082l1.043.369c.379.133.732.249,1.061.353l.265.1c.119.045.218.08.292.1a1.186,1.186,0,0,1,.324-.493,1.919,1.919,0,0,1,.871-.464,1.919,1.919,0,0,1,.986.029l1.04.369q.57.2,1.043.35L-160.1,3c.151.05.239.082.265.1a4.641,4.641,0,0,1,.472.188,1.525,1.525,0,0,1,.446.313,1.749,1.749,0,0,1,.342.531,2.3,2.3,0,0,1,.159.836h.019Z" transform="translate(182 7)" fill="#fff"/>
      </g>
    </g>
  </g>
</svg>
